<svg xmlns="http://www.w3.org/2000/svg" width="156.371" height="62.466" viewBox="0 0 156.371 62.466">
  <defs>
    <style>
      .cls-1 {
        fill: #f4e12f;
      }
    </style>
  </defs>
  <path id="União_1" data-name="União 1" class="cls-1" d="M7.02-1132.843l-2.964-26.8-1.114-10.038a.45.45,0,0,1-.085-.064,7.217,7.217,0,0,1-2.826-4.9,6.681,6.681,0,0,1,2.358-5.853,7.245,7.245,0,0,1,6.942-.8,7.2,7.2,0,0,1,1.8-2.706,8.536,8.536,0,0,1,6.2-2.212,7.314,7.314,0,0,1,3.449-3.875,7.8,7.8,0,0,1,10.3,2.811,7.332,7.332,0,0,1,2.524-1.084,8.066,8.066,0,0,1,8.48,3.677,6.991,6.991,0,0,1,.945,3.614,6.807,6.807,0,0,1,3.154.876c.339.192,3.315,1.991,3.19,5.36a6.018,6.018,0,0,1-3.041,4.906l-1.143,10.327-1.344,10.6-1.579,16.176a4.97,4.97,0,0,1-5.047,4.3H11.951A4.965,4.965,0,0,1,7.02-1132.843ZM11.7-1143q0,11.279,9.368,11.279a9.419,9.419,0,0,0,8.234-4.738h.145v4.1h8.278l.024-26.813H29.46v15.334a6.254,6.254,0,0,1-1.344,4.224,4.49,4.49,0,0,1-3.578,1.558q-4.527,0-4.526-5.677v-15.438H11.7Zm-8.968-28.029a.654.654,0,0,1-.081-.064A.4.4,0,0,0,2.728-1171.031Zm24.4-1.836a8.859,8.859,0,0,0,3.327,1.072,8.607,8.607,0,0,0,3.328-1.072,10.55,10.55,0,0,1,4.341-1.292l.02-.02a8.926,8.926,0,0,1,3.582.956,3.342,3.342,0,0,0,1.663-2.715,3.7,3.7,0,0,0-1.833-3.035,4.15,4.15,0,0,0-2.771-.438,1.2,1.2,0,0,1-.452,0,1.134,1.134,0,0,1-.739-.469,1.123,1.123,0,0,1-.182-.852,4.7,4.7,0,0,0-.469-3.272,5.1,5.1,0,0,0-5.314-2.337,4.732,4.732,0,0,0-2.395,1.393,1.258,1.258,0,0,1-.468.3,1.19,1.19,0,0,1-1.5-.679,5.042,5.042,0,0,0-5.331-3.3,4.845,4.845,0,0,0-3.5,2.525,9.023,9.023,0,0,1,2.1.932,1.1,1.1,0,0,1,.513.7,1.1,1.1,0,0,1-.15.852,1.216,1.216,0,0,1-1.615.349,6.1,6.1,0,0,0-7.317.4,5.548,5.548,0,0,0-1.417,4.646.14.14,0,0,0,0,.044,1.134,1.134,0,0,1-.237.839,1.146,1.146,0,0,1-.765.426H9.37a1.153,1.153,0,0,1-1.166-.964,8.438,8.438,0,0,1-.053-1.8,4.321,4.321,0,0,0-4.474.257,4.046,4.046,0,0,0-1.32,3.509,4.428,4.428,0,0,0,1.381,2.766,9.061,9.061,0,0,1,3.715-1.012,10.568,10.568,0,0,1,4.341,1.292,8.817,8.817,0,0,0,3.323,1.072,8.6,8.6,0,0,0,3.332-1.072,10.544,10.544,0,0,1,4.341-1.292A10.55,10.55,0,0,1,27.13-1172.866Zm113.114,33.089v-13.791h-4.91v-6.85h4.91v-6.5l9.328-2.646v9.146h6.8v6.85h-6.8v12.186q0,4.709,3.755,4.706a6.323,6.323,0,0,0,3.045-.852l-.012,6.87a13.934,13.934,0,0,1-6.239,1.088Q140.24-1129.571,140.244-1139.777Zm-38.391,8.677v-7.528a19.915,19.915,0,0,0,4.611,2.064,15.332,15.332,0,0,0,4.333.675,9.354,9.354,0,0,0,3.917-.675,2.185,2.185,0,0,0,1.434-2.06,1.882,1.882,0,0,0-.651-1.469,6.067,6.067,0,0,0-1.667-1.032,18.929,18.929,0,0,0-2.233-.8q-1.211-.357-2.338-.8a22.022,22.022,0,0,1-3.178-1.458,9.093,9.093,0,0,1-2.31-1.807,7.06,7.06,0,0,1-1.418-2.381,9.433,9.433,0,0,1-.488-3.212,8.221,8.221,0,0,1,1.106-4.352,9.116,9.116,0,0,1,2.96-2.984,13.5,13.5,0,0,1,4.227-1.706,22.282,22.282,0,0,1,4.955-.542,27.764,27.764,0,0,1,4.082.306,30.837,30.837,0,0,1,4.082.9v7.175a14.845,14.845,0,0,0-3.8-1.545,16.185,16.185,0,0,0-3.978-.514,8.8,8.8,0,0,0-1.728.165,5.454,5.454,0,0,0-1.433.469,2.639,2.639,0,0,0-.977.8,1.826,1.826,0,0,0-.356,1.1,2.031,2.031,0,0,0,.533,1.413,4.581,4.581,0,0,0,1.39,1.012,13.5,13.5,0,0,0,1.91.767q1.05.337,2.083.691a26.863,26.863,0,0,1,3.372,1.413,10.826,10.826,0,0,1,2.588,1.791,7.03,7.03,0,0,1,1.656,2.409,9.587,9.587,0,0,1-.594,7.866,9.324,9.324,0,0,1-3.105,3.088,14.074,14.074,0,0,1-4.466,1.735,24.708,24.708,0,0,1-5.249.545c-.1,0-.205,0-.307,0A27.162,27.162,0,0,1,101.854-1131.1ZM57.6-1129.6v-41.376h9.536v41.376Zm21.753-.143v-30.278H88.7v30.278Zm3.368-36.787-.141-.2a3.069,3.069,0,0,1-1.8-.639,2.906,2.906,0,0,1-1.022-2.931,3.016,3.016,0,0,1,3.073-2.164l.21-.08a3,3,0,0,1,1.47-1.2,2.951,2.951,0,0,1,3.052.638,2.989,2.989,0,0,1,.282,3.738l-.028.153a2.981,2.981,0,0,1,.356,1.863,2.914,2.914,0,0,1-2.019,2.362,3.052,3.052,0,0,1-.747.093A3.027,3.027,0,0,1,82.72-1166.526Z" transform="translate(0 1191)"/>
</svg>
